<svg height="682pt" viewBox="-21 -68 682.66669 682" width="682pt" xmlns="http://www.w3.org/2000/svg"><path d="m165.4375 178.671875h-41.078125v42.222656h41.078125c7.277344 0 21.042969-4.738281 21.042969-22.648437 0-5.523438-1.699219-10.417969-4.785157-13.789063-3.515624-3.84375-8.984374-5.785156-16.257812-5.785156zm0 0"/><path d="m480.546875-2.75h-321.09375c-88.0625 0-159.453125 71.386719-159.453125 159.453125v7.960937c0 88.066407 71.390625 159.453126 159.453125 159.453126h134.335937c-.1875-11.992188 3.492188-23.777344 10.8125-33.84375 10.636719-14.640626 27.726563-23.378907 45.710938-23.378907 5.921875 0 11.816406.933594 17.515625 2.777344l152.625 49.410156c68.75-17.71875 119.546875-80.136719 119.546875-154.417969v-7.960937c0-88.066406-71.386719-159.453125-159.453125-159.453125zm-270.316406 242.519531c-11.125 12.886719-27.03125 19.984375-44.792969 19.984375h-60.511719c-10.726562 0-19.425781-8.695312-19.425781-19.425781v-159.289063c0-10.730468 8.695312-19.429687 19.425781-19.429687h52.371094c39.285156 0 59.847656 29.148437 59.847656 57.9375 0 12.683594-3.789062 24.769531-10.785156 34.726563 1.492187 1.320312 2.820313 2.648437 4 3.945312 9.660156 10.550781 14.984375 24.769531 14.984375 40.027344 0 15.484375-5.367188 30.230468-15.113281 41.523437zm178.097656-47.125c0 37.007813-30.128906 67.109375-67.160156 67.109375s-67.164063-30.101562-67.164063-67.109375v-111.605469c0-10.730468 8.699219-19.429687 19.433594-19.429687s19.433594 8.699219 19.433594 19.429687v111.605469c0 15.578125 12.691406 28.25 28.296875 28.25 15.597656 0 28.292969-12.671875 28.292969-28.25v-111.605469c0-10.730468 8.703124-19.429687 19.4375-19.429687 10.730468 0 19.429687 8.699219 19.429687 19.429687zm155.816406-101.796875-43.113281 73.761719v75.71875c0 10.726563-8.703125 19.425781-19.433594 19.425781-10.734375 0-19.433594-8.695312-19.433594-19.425781v-75.71875l-43.117187-73.761719c-5.414063-9.265625-2.292969-21.164062 6.972656-26.582031 9.261719-5.414063 21.167969-2.296875 26.582031 6.96875l28.996094 49.605469 28.992188-49.605469c5.421875-9.261719 17.320312-12.382813 26.589844-6.96875 9.261718 5.417969 12.382812 17.316406 6.964843 26.582031zm0 0"/><path d="m178.277344 119.546875c0-5.230469-1.707032-9.941406-4.800782-13.273437-3.578124-3.847657-9.023437-5.800782-16.179687-5.800782h-32.9375v39.332032h32.9375c2.148437 0 20.980469-.566407 20.980469-20.257813zm0 0"/><path d="m499.058594 409.164062 22.019531-21.996093c8.375-8.359375 6.171875-21.984375-3.402344-27.667969-1.121093-.664062-2.332031-1.222656-3.652343-1.648438l-158.167969-51.207031c-1.875-.605469-3.742188-.886719-5.546875-.886719-9.863282 0-18.039063 8.425782-17.613282 18.359376.070313 1.570312.34375 3.175781.867188 4.796874l51.261719 157.988282c2.527343 7.808594 9.632812 12.238281 16.894531 12.238281 4.429688 0 8.910156-1.644531 12.457031-5.1875l22.019531-21.996094 67.007813 66.929688c3.457031 3.453125 7.988281 5.179687 12.515625 5.179687 4.53125 0 9.054688-1.726562 12.515625-5.179687l37.828125-37.789063c6.914062-6.902344 6.914062-18.09375 0-25zm0 0"/></svg>
